<?xml version="1.0" standalone="no"?>
<!DOCTYPE svg PUBLIC "-//W3C//DTD SVG 20010904//EN"
 "http://www.w3.org/TR/2001/REC-SVG-20010904/DTD/svg10.dtd">
<svg version="1.0" xmlns="http://www.w3.org/2000/svg"
 width="193.000000pt" height="261.000000pt" viewBox="0 0 193.000000 261.000000"
 preserveAspectRatio="xMidYMid meet">

<g transform="translate(0.000000,261.000000) scale(0.100000,-0.100000)"
fill="#000000" stroke="none">
<path d="M810 2575 c-390 -64 -708 -367 -784 -748 -33 -165 -28 -297 15 -456
82 -304 321 -555 624 -656 163 -55 396 -59 559 -11 325 97 563 335 662 662 25
81 27 104 28 254 1 179 -9 236 -64 373 -63 153 -193 318 -324 412 -205 145
-476 210 -716 170z m341 -41 c125 -25 254 -82 354 -156 370 -275 489 -757 288
-1163 -50 -100 -109 -179 -197 -263 -108 -102 -206 -162 -344 -209 -179 -60
-427 -58 -598 7 -469 175 -714 644 -589 1124 52 198 202 403 386 525 207 139
451 186 700 135z"/>
<path d="M571 2405 c-1 -23 -7 -47 -13 -54 -10 -11 -10 -14 0 -18 6 -3 12 -18
12 -35 0 -25 3 -28 20 -23 23 7 28 -13 8 -33 -6 -6 -8 -15 -3 -19 4 -5 10 -2
12 5 3 6 14 12 25 12 19 0 19 1 4 25 -9 13 -16 38 -16 55 0 18 -6 33 -15 36
-11 5 -12 11 -5 24 6 10 10 29 10 42 -1 22 -1 22 -12 3 -11 -19 -11 -19 -19 0
-6 15 -8 9 -8 -20z m22 -80 c4 -8 2 -17 -3 -20 -6 -4 -10 3 -10 14 0 25 6 27
13 6z"/>
<path d="M1322 2373 c-5 -10 -7 -23 -5 -29 3 -10 -26 -25 -97 -48 -10 -3 -8
-5 6 -5 28 -1 124 28 149 45 11 8 29 15 40 15 17 1 17 2 3 6 -10 2 -18 11 -18
19 0 8 -4 14 -10 14 -5 0 -10 -4 -10 -10 0 -5 -12 -10 -26 -10 -14 0 -23 4
-19 10 3 6 4 10 1 10 -3 0 -9 -8 -14 -17z"/>
<path d="M640 2286 c0 -2 7 -6 15 -10 8 -3 15 -1 15 4 0 6 -7 10 -15 10 -8 0
-15 -2 -15 -4z"/>
<path d="M845 2281 c-251 -42 -467 -244 -530 -496 -20 -78 -19 -232 1 -314 80
-323 394 -541 718 -500 169 22 292 85 407 207 123 132 179 273 179 454 0 111
-19 187 -73 298 -33 67 -58 102 -122 165 -87 87 -145 122 -257 161 -81 27
-236 39 -323 25z m248 -27 c295 -65 507 -324 507 -620 0 -95 -11 -158 -40
-237 l-21 -57 -575 0 -575 0 -15 35 c-51 122 -63 292 -30 415 46 171 178 331
336 409 140 68 273 86 413 55z m417 -953 c0 -20 -83 -119 -137 -163 -181 -150
-415 -189 -643 -107 -100 36 -257 164 -303 247 l-18 32 550 0 c320 0 551 -4
551 -9z"/>
<path d="M888 2043 c-38 -82 -72 -150 -74 -152 -3 -3 -29 19 -59 49 -30 30
-56 52 -59 49 -2 -2 -27 -50 -55 -106 -28 -57 -57 -103 -64 -104 -6 0 -37 0
-68 1 l-57 1 -4 -41 c-4 -48 5 -55 57 -46 41 8 43 1 15 -54 l-20 -40 43 0 c42
0 44 1 67 50 23 49 24 50 68 50 31 0 43 -4 39 -12 -3 -7 -12 -30 -21 -50 l-16
-38 40 0 c38 0 41 3 65 50 l25 50 55 0 c60 0 64 -4 38 -32 -14 -15 -14 -21 -4
-27 10 -6 11 -28 6 -90 -7 -74 -9 -81 -29 -81 -11 0 -34 9 -50 19 -28 19 -29
19 -63 -1 -46 -28 -106 -27 -144 1 -23 17 -33 20 -44 11 -28 -23 -76 -30 -112
-15 -32 14 -34 13 -42 -8 -11 -28 -3 -36 49 -48 29 -7 53 -6 76 1 26 9 43 8
79 -4 56 -19 88 -20 140 -1 29 10 43 11 53 3 11 -10 46 -12 142 -8 14 0 44 -2
66 -6 28 -4 51 -1 71 9 26 14 35 14 69 2 51 -19 87 -18 132 0 30 13 45 14 83
5 34 -8 58 -8 87 0 48 12 52 18 41 47 -8 21 -9 21 -48 6 -38 -15 -42 -14 -82
5 -42 21 -42 21 -67 2 -32 -25 -112 -27 -153 -3 -27 16 -31 16 -64 0 -55 -26
-62 -23 -69 36 -4 28 -9 67 -12 85 l-6 32 68 0 c66 0 70 -1 86 -30 14 -24 24
-30 53 -30 37 0 42 8 24 41 -10 19 -8 20 38 17 41 -3 50 -7 61 -30 11 -24 19
-28 53 -28 44 0 43 -1 29 35 -9 23 -8 26 9 20 34 -11 51 4 51 47 l0 39 -56 -3
-56 -4 -66 138 c-36 76 -71 138 -77 138 -7 0 -31 -22 -54 -50 -23 -27 -46 -50
-50 -50 -4 0 -40 68 -80 150 -39 83 -74 150 -77 150 -3 0 -37 -66 -76 -147z
m151 -169 c40 -86 70 -158 67 -161 -3 -3 -26 -8 -51 -10 -46 -5 -57 5 -30 27
21 18 19 28 -7 32 -19 2 -24 11 -29 45 -6 49 -12 58 -34 50 -9 -4 -15 -19 -15
-39 0 -49 -10 -57 -57 -51 l-41 5 35 77 c19 42 46 100 59 129 12 28 25 52 27
52 2 0 37 -70 76 -156z m-290 -28 c17 -18 22 -32 17 -50 -6 -23 -11 -26 -52
-26 -25 0 -44 3 -42 8 2 4 12 26 22 50 10 23 21 42 25 42 4 0 18 -11 30 -24z
m496 -46 c19 -38 35 -74 35 -80 0 -5 -18 -10 -40 -10 -39 0 -42 2 -65 52 l-24
53 26 27 c15 16 28 28 30 28 1 0 19 -31 38 -70z"/>
<path d="M750 1215 c-10 -12 -10 -15 3 -15 12 0 17 -13 20 -52 3 -50 3 -49 5
15 2 67 -5 80 -28 52z"/>
<path d="M860 1215 c-20 -24 3 -65 34 -65 19 0 24 -4 19 -16 -4 -12 -14 -14
-36 -10 -25 5 -28 4 -17 -9 15 -18 42 -19 58 -3 13 13 16 75 6 102 -8 20 -48
21 -64 1z m50 -10 c10 -12 10 -18 0 -29 -14 -18 -40 -10 -40 13 0 32 20 40 40
16z"/>
<path d="M991 1216 c-18 -21 -10 -97 12 -110 28 -18 52 4 55 53 2 23 -2 49 -9
57 -15 18 -43 18 -58 0z m50 -20 c17 -37 4 -78 -24 -74 -17 2 -23 11 -25 36
-3 32 11 62 29 62 5 0 14 -11 20 -24z"/>
<path d="M1120 1219 c-11 -8 -12 -12 -2 -16 7 -3 12 -24 12 -54 0 -27 5 -49
10 -49 6 0 10 28 10 65 0 66 -4 73 -30 54z"/>
<path d="M1337 2245 l-18 -25 26 12 c14 6 25 17 25 25 0 20 -13 15 -33 -12z"/>
<path d="M187 1970 c14 -16 28 -30 30 -30 2 0 -3 14 -12 30 -9 17 -22 30 -30
30 -11 0 -7 -9 12 -30z"/>
<path d="M278 1945 c5 -29 5 -29 21 3 10 19 9 22 -7 22 -15 0 -18 -5 -14 -25z"/>
<path d="M1757 1944 c-3 -4 4 -15 16 -24 34 -28 11 -36 -32 -12 -40 23 -54 21
-44 -6 4 -10 2 -13 -5 -8 -8 5 -12 -1 -12 -16 0 -21 -2 -20 -19 8 -29 47 -39
49 -50 7 -9 -32 -8 -40 6 -51 10 -7 23 -10 30 -8 7 3 13 -1 13 -9 0 -29 18
-14 24 20 6 29 11 35 34 36 33 2 29 3 77 -15 52 -19 58 -3 14 35 -19 17 -33
34 -31 39 2 11 -11 13 -21 4z m-107 -75 c9 -16 7 -19 -10 -19 -15 0 -20 7 -20
26 0 27 14 25 30 -7z"/>
<path d="M235 1881 c-6 -47 -9 -52 -20 -38 -19 26 -25 20 -14 -13 6 -16 17
-30 25 -30 18 0 33 61 25 102 -7 32 -8 31 -16 -21z"/>
<path d="M1696 1542 c-3 -5 3 -17 14 -27 26 -24 25 -32 -5 -39 -14 -4 -25 -13
-25 -21 0 -14 3 -14 30 0 16 8 45 15 65 15 42 0 46 15 8 25 -16 3 -40 18 -54
32 -15 13 -29 20 -33 15z"/>
<path d="M182 1528 c-7 -7 -12 -25 -12 -40 0 -18 -5 -28 -15 -28 -21 0 -30 27
-15 45 17 20 5 32 -15 15 -21 -18 -19 -54 6 -76 26 -24 52 -9 59 35 6 39 26
37 23 -2 -2 -36 21 -30 25 7 6 45 -29 71 -56 44z"/>
<path d="M1658 1385 c-16 -42 -9 -63 10 -30 7 14 13 14 51 0 50 -17 61 -18 61
-6 0 5 -23 17 -50 26 -42 14 -50 20 -45 36 13 40 -11 17 -27 -26z"/>
<path d="M183 1403 c-24 -8 -43 -21 -43 -29 0 -11 6 -11 27 -3 20 7 28 6 35
-3 14 -23 9 -38 -19 -49 -16 -6 -23 -13 -17 -19 12 -12 126 29 118 42 -3 5
-15 6 -26 2 -13 -4 -24 -1 -29 7 -14 22 -10 37 11 44 11 3 20 11 20 16 0 13
-28 10 -77 -8z"/>
<path d="M1630 1311 c0 -5 15 -17 33 -26 56 -29 76 -35 82 -24 4 5 -19 21 -50
34 -63 28 -65 29 -65 16z"/>
<path d="M252 1267 c-38 -6 -61 -14 -59 -21 2 -6 11 -10 20 -8 21 4 39 -32 31
-63 -9 -38 7 -29 49 25 56 75 52 81 -41 67z m38 -26 c0 -5 -6 -14 -14 -20 -10
-9 -15 -8 -19 3 -3 8 -1 17 6 20 19 7 27 7 27 -3z"/>
<path d="M1598 1253 c-26 -31 -30 -44 -18 -58 16 -20 39 -19 61 1 23 21 57 11
39 -11 -7 -8 -19 -15 -26 -15 -15 0 -19 -12 -8 -23 10 -9 42 11 54 33 13 25
-3 60 -27 60 -9 0 -27 -9 -39 -21 -12 -12 -27 -18 -33 -15 -15 10 -3 33 21 39
11 3 17 10 13 16 -9 16 -20 14 -37 -6z"/>
<path d="M312 1152 c-50 -45 -46 -63 6 -24 31 23 35 24 28 7 -19 -48 -25 -80
-17 -88 11 -11 103 71 95 85 -4 5 -20 -3 -36 -19 l-31 -28 6 30 c4 17 9 40 13
53 10 33 -14 27 -64 -16z"/>
<path d="M1510 1138 l-30 -33 45 -43 c47 -45 85 -50 44 -6 -25 27 -15 36 35
31 16 -1 31 4 33 11 3 8 -6 12 -26 12 -26 0 -31 4 -31 24 0 20 -16 36 -35 36
-2 0 -18 -15 -35 -32z m50 -12 c0 -22 -29 -41 -42 -28 -8 8 -8 15 2 27 16 19
40 20 40 1z"/>
<path d="M411 1051 l-41 -49 29 -21 c38 -27 62 -27 89 2 30 31 28 58 -7 91
l-28 27 -42 -50z m75 -13 c12 -38 -45 -75 -73 -47 -9 9 -5 20 14 44 28 35 48
36 59 3z"/>
<path d="M1417 1055 c-30 -27 -30 -29 16 -87 32 -40 37 -40 86 2 33 28 19 37
-17 11 -24 -17 -32 -18 -41 -7 -8 10 -6 17 9 31 29 26 25 40 -5 21 -39 -25
-51 -9 -19 25 35 36 11 39 -29 4z"/>
<path d="M1363 958 l6 -51 -32 31 c-32 31 -57 41 -57 24 0 -16 99 -92 105 -82
10 16 -5 130 -17 130 -7 0 -9 -19 -5 -52z"/>
<path d="M527 982 c-55 -60 26 -149 83 -92 25 25 26 72 2 93 -24 22 -65 21
-85 -1z m78 -22 c8 -26 -20 -72 -42 -68 -47 9 -37 88 11 88 16 0 27 -7 31 -20z"/>
<path d="M1246 952 c-10 -16 37 -122 50 -114 7 5 1 27 -16 66 -15 33 -30 54
-34 48z"/>
<path d="M652 894 c-26 -66 -26 -64 -8 -64 8 0 17 14 21 30 9 42 21 37 31 -12
5 -23 14 -43 19 -45 14 -4 56 115 44 123 -8 5 -29 -35 -29 -57 0 -5 -4 -9 -9
-9 -4 0 -12 19 -17 42 -5 23 -14 43 -20 45 -6 2 -21 -22 -32 -53z"/>
<path d="M1197 934 c-3 -6 -2 -25 3 -43 10 -37 1 -39 -30 -6 -13 14 -31 25
-41 25 -16 0 -16 -4 -2 -52 20 -71 38 -87 29 -28 l-7 45 33 -33 c32 -30 58
-41 58 -24 -1 25 -37 125 -43 116z"/>
<path d="M800 890 c-43 -43 -14 -110 49 -110 25 0 34 6 41 26 14 35 14 34 -22
34 -30 -1 -31 -2 -15 -14 23 -18 21 -26 -7 -26 -35 0 -52 25 -38 56 16 33 39
40 62 19 26 -24 38 -11 15 15 -23 26 -59 26 -85 0z"/>
<path d="M989 893 c-3 -22 4 -79 12 -100 10 -26 56 -32 77 -11 17 17 16 118
-2 118 -10 0 -12 -12 -8 -50 4 -41 1 -51 -13 -56 -25 -10 -45 21 -45 68 0 21
-4 38 -10 38 -5 0 -10 -3 -11 -7z"/>
<path d="M1772 634 c-18 -19 -41 -34 -52 -34 -11 0 -20 -5 -20 -12 0 -6 -19
-29 -42 -50 l-43 -37 -17 20 c-18 21 -18 21 -18 -20 0 -55 21 -54 72 4 30 34
47 45 68 45 16 0 31 -4 34 -8 6 -11 -70 -124 -118 -176 -58 -62 -38 -111 25
-59 l31 26 -7 -47 -8 -48 31 7 c18 4 40 1 54 -6 22 -12 19 -13 -35 -26 -66
-15 -169 -76 -162 -95 7 -19 35 -34 111 -63 82 -31 89 -31 119 0 20 19 25 34
25 75 0 52 14 63 49 41 8 -5 20 -7 28 -4 22 9 15 32 -12 38 -14 3 -37 7 -51
10 -14 3 -28 15 -31 25 -3 11 -20 24 -40 31 -31 10 -34 14 -29 38 20 86 20 91
-3 91 -27 0 -27 8 3 39 74 81 139 207 114 223 -23 14 -42 7 -76 -28z m14 -41
c-10 -10 -19 5 -10 18 6 11 8 11 12 0 2 -7 1 -15 -2 -18z m2 -437 c7 -33 -18
-73 -48 -80 -38 -7 -92 12 -88 32 3 16 106 74 123 68 6 -1 12 -11 13 -20z"/>
<path d="M760 540 c-45 -93 -80 -130 -122 -130 -26 0 -22 -15 8 -39 l27 -21
-32 -72 c-26 -56 -29 -73 -19 -79 7 -5 20 -6 28 -3 42 17 50 16 50 -5 0 -26
-53 -81 -78 -81 -28 0 -43 -20 -31 -42 14 -26 37 -22 51 7 14 31 23 31 64 0
40 -31 44 -23 44 83 0 64 4 84 25 117 30 49 32 86 5 110 -11 10 -20 21 -20 24
0 4 20 17 44 30 34 19 48 35 65 74 11 28 19 53 16 55 -3 3 -23 -9 -46 -27 -22
-18 -42 -31 -44 -29 -3 2 0 21 6 42 23 85 4 78 -41 -14z m-45 -235 c-14 -38
-45 -69 -45 -46 0 17 30 95 43 109 20 25 22 -13 2 -63z"/>
<path d="M230 538 c-2 -86 -10 -188 -16 -203 -6 -18 -6 -19 10 -4 9 9 23 46
31 83 13 60 13 72 -1 97 -12 24 -24 37 -24 27z"/>
<path d="M1210 521 c0 -5 4 -21 10 -35 8 -22 5 -28 -32 -55 -44 -32 -63 -32
-52 1 4 14 2 18 -5 14 -26 -16 -5 -106 24 -106 8 0 15 -5 15 -11 0 -24 -69
-136 -112 -183 -27 -27 -48 -52 -48 -53 0 -2 13 3 29 11 68 36 228 242 246
319 4 15 20 35 36 44 29 17 37 37 19 48 -5 3 -20 -1 -34 -10 -23 -15 -26 -15
-45 4 -22 22 -51 28 -51 12z"/>
<path d="M342 288 c-11 -25 -25 -49 -31 -52 -6 -4 -11 -11 -11 -15 0 -4 25 4
55 18 30 14 55 29 55 34 0 4 -11 20 -24 34 l-24 26 -20 -45z"/>
<path d="M175 239 c-83 -71 -93 -79 -98 -79 -2 0 -2 25 1 55 5 66 -10 73 -27
13 -7 -24 -19 -53 -27 -65 -13 -20 -12 -25 5 -42 19 -19 21 -19 61 -3 56 23
146 113 166 166 11 28 -9 17 -81 -45z"/>
<path d="M1324 243 c9 -42 9 -86 2 -108 l-8 -20 16 20 c9 11 25 30 37 43 27
28 19 64 -16 80 -36 16 -37 16 -31 -15z"/>
<path d="M797 140 c29 -44 38 -48 51 -24 20 36 -6 63 -60 64 -14 0 -13 -6 9
-40z"/>
</g>
</svg>
